# xmcd CD database file
#
# Track frame offsets:
#	150
#	15294
#	31585
#	44711
#	62680
#	73919
#	87709
#	99423
#	113215
#	132636
#	148668
#	164574
#	177880
#	190139
#	205564
#	217878
#
# Disc length: 2970 seconds
#
# Revision: 0
# Processed by: cddbd v1.5.1PL0 Copyright (c) Steve Scherf et al.
# Submitted via: CDex 1.51
#
DISCID=e60b9810
DTITLE=Johnny Dyer With Mark Hummel - Rolling Fork Revisited
DYEAR=2004
DGENRE=Blues
TTITLE0=Oh Yeah
TTITLE1=Young Fashioned Ways
TTITLE2=Can't Get No Gringing (What's The Matter Mill)
TTITLE3=Country Boy
TTITLE4=Gone To Main Street
TTITLE5=Don't Go No Further
TTITLE6=Sugar Sweet
TTITLE7=Don't Know Why
TTITLE8=Forty Days And Forty Nights
TTITLE9=My Dog Can't Bark
TTITLE10=Layaway Plan
TTITLE11=Stuff You Got To Watch
TTITLE12=Got To Find My Baby
TTITLE13=Clouds In My Heart
TTITLE14=Trouble No More
TTITLE15=Evan's Shuffle
EXTD=YEAR: 2004
EXTT0=
EXTT1=
EXTT2=
EXTT3=
EXTT4=
EXTT5=
EXTT6=
EXTT7=
EXTT8=
EXTT9=
EXTT10=
EXTT11=
EXTT12=
EXTT13=
EXTT14=
EXTT15=
PLAYORDER=
